<svg width="32" height="32" viewBox="0 0 32 32" fill="none" xmlns="http://www.w3.org/2000/svg">
<g id="deposit-money (1) 2">
<rect width="32" height="32" fill="#24262B"/>
<path id="Vector" d="M27 15H5C4.447 15 4 15.448 4 16V28C4 28.552 4.447 29 5 29H27C27.553 29 28 28.552 28 28V16C28 15.448 27.553 15 27 15ZM23.141 27H8.859C8.496 25.599 7.401 24.504 6 24.141V19.858C7.401 19.496 8.496 18.401 8.859 17H23.142C23.505 18.401 24.6 19.496 26.001 19.859V24.142C24.599 24.504 23.504 25.599 23.141 27Z" fill="white"/>
<path id="Vector_2" d="M19.0002 22C19.0002 23.654 17.6542 25 16.0002 25C14.3462 25 13.0002 23.654 13.0002 22C13.0002 20.346 14.3462 19 16.0002 19C17.6542 19 19.0002 20.346 19.0002 22ZM20.7072 8.707L16.7072 12.707C16.3172 13.097 15.6832 13.097 15.2932 12.707L11.2932 8.707C11.0072 8.421 10.9212 7.991 11.0762 7.617C11.2302 7.244 11.5962 7 12.0002 7H14.0002V4C14.0002 2.895 14.8952 2 16.0002 2C17.1052 2 18.0002 2.895 18.0002 4V7H20.0002C20.4042 7 20.7702 7.244 20.9242 7.617C21.0792 7.991 20.9932 8.421 20.7072 8.707Z" fill="white"/>
</g>
</svg>
